<?xml version="1.0" encoding="UTF-8" standalone="no"?>
<!DOCTYPE svg PUBLIC "-//W3C//DTD SVG 1.1//EN" "http://www.w3.org/Graphics/SVG/1.1/DTD/svg11.dtd">
<svg width="100%" height="100%" viewBox="0 0 17 17" version="1.1" xmlns="http://www.w3.org/2000/svg" xmlns:xlink="http://www.w3.org/1999/xlink" xml:space="preserve" xmlns:serif="http://www.serif.com/" style="fill-rule:evenodd;clip-rule:evenodd;stroke-linecap:round;stroke-linejoin:round;stroke-miterlimit:1.5;">
    <g transform="matrix(0.27381,0,0,0.27381,-53.6429,-69.7143)">
        <path d="M254.348,271.957C254.348,264.398 248.211,258.261 240.652,258.261L213.261,258.261C205.702,258.261 199.565,264.398 199.565,271.957L199.565,299.348C199.565,306.907 205.702,313.043 213.261,313.043L240.652,313.043C248.211,313.043 254.348,306.907 254.348,299.348L254.348,271.957Z" style="fill:none;stroke:white;stroke-width:7.3px;"/>
    </g>
    <g transform="matrix(0.614276,0,0,0.614276,0.839887,0.330848)">
        <path d="M21,7L9,19L3.5,13.5L4.91,12.09L9,16.17L19.59,5.59L21,7Z" style="fill:white;fill-rule:nonzero;stroke:white;stroke-width:1.63px;stroke-linecap:butt;stroke-miterlimit:2;"/>
    </g>
</svg>
